Coordinates
version=1
nRows=21
nColumns=22
inDegrees=yes

Units are S.I. units (second, meters, Newtons, ...)
If the header above contains a line with 'inDegrees', this indicates whether rotational values are in degrees (yes) or radians (no).

endheader
time	pelvis_tilt	pelvis_list	pelvis_rotation	pelvis_tx	pelvis_ty	pelvis_tz	hip_flexion_r	hip_adduction_r	hip_rotation_r	knee_angle_r	ankle_angle_r	subtalar_angle_r	hip_flexion_l	hip_adduction_l	hip_rotation_l	knee_angle_l	ankle_angle_l	subtalar_angle_l	lumbar_extension	lumbar_bending	lumbar_rotation
      3.64000000	     -5.48889322	     -2.22528614	     -1.45541822	     -0.67565325	      0.92842065	     -0.18637594	      4.32374125	      6.71247211	     -1.09190104	    -22.50191579	     21.83010723	     -6.41191072	     34.56129664	     -4.81006067	     -2.99182040	    -24.80694681	      8.27071471	      6.34686417	     -8.86703731	     -0.73674046	      3.33811058
      3.65000000	     -5.26117346	     -2.28453686	     -1.35449691	     -0.68142090	      0.92996391	     -0.18572035	      4.36424839	      6.83894774	     -1.12885990	    -22.29829086	     21.47475841	     -6.54194677	     34.40409667	     -4.91657114	     -2.81356992	    -26.04306177	      8.36957032	      6.06620666	     -9.03665760	     -0.69198134	      3.17809224
      3.66000000	     -5.06087313	     -2.31698258	     -1.25183997	     -0.68698899	      0.93156338	     -0.18511695	      4.38726937	      6.92673829	     -1.19860555	    -22.03220845	     21.10093628	     -6.82880566	     34.23143670	     -5.00035651	     -2.66136064	    -27.32843404	      8.43573873	      5.64146320	     -9.16238457	     -0.68195417	      3.01186646
      3.67000000	     -4.88679402	     -2.34994764	     -1.18975194	     -0.69241478	      0.93317221	     -0.18448922	      4.41390688	      7.01602405	     -1.21719611	    -21.74885007	     20.71422498	     -6.92228279	     34.03873068	     -5.11252654	     -2.53457552	    -28.65550583	      8.64930051	      5.38175483	     -9.25385707	     -0.67814271	      2.88596607
      3.68000000	     -4.74631586	     -2.35467078	     -1.11498793	     -0.69767972	      0.93475016	     -0.18390792	      4.42747552	      7.07670988	     -1.23675911	    -21.40242234	     20.32900947	     -7.23865189	     33.83020232	     -5.19030171	     -2.40022402	    -29.98852629	      8.78325588	      4.94075044	     -9.29848036	     -0.71081025	      2.71575405
      3.69000000	     -4.63294752	     -2.35610508	     -1.09468340	     -0.70281909	      0.93625575	     -0.18330393	      4.46365465	      7.13103268	     -1.22014016	    -21.07102745	     19.96505523	     -7.33091548	     33.59734043	     -5.29876942	     -2.30845309	    -31.33794910	      9.06361856	      4.65995052	     -9.30898958	     -0.75074544	      2.62015307
      3.70000000	     -4.55008947	     -2.34611737	     -1.06490739	     -0.70783328	      0.93766782	     -0.18272910	      4.50027063	      7.17930870	     -1.17695869	    -20.70319615	     19.60038731	     -7.67294615	     33.34853883	     -5.38820809	     -2.19501588	    -32.67615161	      9.21000526	      4.11853688	     -9.28272267	     -0.80705979	      2.48067839
      3.71000000	     -4.48872302	     -2.32868625	     -1.08595446	     -0.71270628	      0.93895613	     -0.18214948	      4.57045632	      7.21084280	     -1.12736642	    -20.37962178	     19.26650745	     -7.91609644	     33.06706763	     -5.50216950	     -2.14088589	    -34.00896885	      9.44043065	      3.63422616	     -9.22609834	     -0.87205258	      2.40875950
      3.72000000	     -4.44440472	     -2.32259391	     -1.12888931	     -0.71747084	      0.94011899	     -0.18158128	      4.65942744	      7.25496704	     -1.03724164	    -20.07789398	     18.96051289	     -8.09918704	     32.75659016	     -5.63632864	     -2.09044485	    -35.32353439	      9.64757509	      3.15394647	     -9.15243881	     -0.92261154	      2.35337771
      3.73000000	     -4.40876691	     -2.32190392	     -1.20129066	     -0.72212043	      0.94114497	     -0.18102709	      4.78023095	      7.29942006	     -0.93145724	    -19.83703752	     18.68358941	     -8.27308321	     32.40475935	     -5.78876962	     -2.06530215	    -36.61161876	      9.85969057	      2.66416459	     -9.07002996	     -0.96376001	      2.32686415
      3.74000000	     -4.38169460	     -2.31857333	     -1.30013442	     -0.72663047	      0.94203208	     -0.18050818	      4.93086221	      7.32870052	     -0.86500343	    -19.65080113	     18.44557266	     -8.50066922	     32.00741492	     -5.95109413	     -2.08505319	    -37.85674270	     10.05344404	      2.12172616	     -8.97486145	     -1.00536370	      2.34096919
      3.75000000	     -4.35415066	     -2.35065858	     -1.41580332	     -0.73100597	      0.94279495	     -0.18000534	      5.07723814	      7.39786787	     -0.74180034	    -19.47914157	     18.22670200	     -8.60426825	     31.56905442	     -6.15317471	     -2.10645193	    -39.07082080	     10.28363670	      1.75326137	     -8.88024145	     -1.00087777	      2.36090248
      3.76000000	     -4.32358824	     -2.38959215	     -1.54773187	     -0.73521207	      0.94343833	     -0.17954548	      5.23411095	      7.46283174	     -0.67115631	    -19.35050467	     18.03966303	     -8.80145362	     31.07877024	     -6.37013287	     -2.17584475	    -40.23431607	     10.44562530	      1.27447780	     -8.78328990	     -0.98455574	      2.41714704
      3.77000000	     -4.28754595	     -2.45857051	     -1.67965828	     -0.73926355	      0.94397154	     -0.17915155	      5.38717393	      7.55776600	     -0.57279779	    -19.24683593	     17.87111942	     -8.89368527	     30.54163633	     -6.60431397	     -2.23120983	    -41.35149370	     10.67802329	      0.97261176	     -8.69131478	     -0.92212875	      2.45931058
      3.78000000	     -4.23764804	     -2.54175740	     -1.81431796	     -0.74312291	      0.94442908	     -0.17881803	      5.52601329	      7.66083204	     -0.50670147	    -19.16424476	     17.71183520	     -9.07303693	     29.94527951	     -6.84921818	     -2.31792269	    -42.40694693	     10.81354990	      0.58246766	     -8.60729995	     -0.83725907	      2.52409445
      3.79000000	     -4.19559872	     -2.65359394	     -1.92691348	     -0.74681653	      0.94477992	     -0.17856215	      5.67388778	      7.79457093	     -0.43124240	    -19.10165197	     17.56274059	     -9.15084305	     29.32297105	     -7.10029215	     -2.37975451	    -43.40107640	     10.99698557	      0.34737010	     -8.50965562	     -0.71062507	      2.55302264
      3.80000000	     -4.15315072	     -2.78020840	     -2.02197939	     -0.75032876	      0.94505723	     -0.17838063	      5.82493745	      7.93696365	     -0.40342444	    -19.06249724	     17.42791071	     -9.21890443	     28.66344188	     -7.35024321	     -2.44367847	    -44.31741780	     11.12539128	      0.14069313	     -8.40431206	     -0.56307442	      2.59422966
      3.81000000	     -4.08495689	     -2.90452283	     -2.09239067	     -0.75367989	      0.94533954	     -0.17830132	      5.94983573	      8.07914551	     -0.33707654	    -19.04190417	     17.25822364	     -9.39704273	     27.92636759	     -7.56848017	     -2.50075850	    -45.11678348	     11.14895131	     -0.18346570	     -8.32635349	     -0.40557740	      2.57658010
      3.82000000	     -4.05961716	     -3.04632407	     -2.13197112	     -0.75688444	      0.94549212	     -0.17829646	      6.13400545	      8.23561232	     -0.31915748	    -19.05745989	     17.11157693	     -9.43587860	     27.21244407	     -7.78110746	     -2.52913260	    -45.82465550	     11.19772465	     -0.30855782	     -8.18979574	     -0.22513180	      2.54201979
      3.83000000	     -4.02048572	     -3.18452017	     -2.14002753	     -0.75993050	      0.94565475	     -0.17841078	      6.29858468	      8.38729769	     -0.27683690	    -19.07860037	     16.94124668	     -9.50136983	     26.43411857	     -7.95504666	     -2.53981333	    -46.37923490	     11.17997902	     -0.47802486	     -8.06506683	     -0.03563329	      2.45230980
      3.84000000	     -3.98133243	     -3.30811808	     -2.12476144	     -0.76281953	      0.94580267	     -0.17858790	      6.46954806	      8.51838666	     -0.26832240	    -19.12364779	     16.78889460	     -9.58559421	     25.60279470	     -8.08866900	     -2.54282768	    -46.75846646	     11.11233039	     -0.65756305	     -7.93232475	      0.13349136	      2.34476127
